<?xml version="1.0" encoding="UTF-8" standalone="no"?><!DOCTYPE svg PUBLIC "-//W3C//DTD SVG 1.1//EN" "http://www.w3.org/Graphics/SVG/1.1/DTD/svg11.dtd"><svg width="100%" height="100%" viewBox="0 0 3200 2800" version="1.1" xmlns="http://www.w3.org/2000/svg" xmlns:xlink="http://www.w3.org/1999/xlink" xml:space="preserve" xmlns:serif="http://www.serif.com/" style="fill-rule:evenodd;clip-rule:evenodd;stroke-miterlimit:10;"><g id="Layer-1" serif:id="Layer 1"><path d="M1103.44,918.766l-63.756,-63.353c-5.439,-5.405 -5.469,-14.196 -0.061,-19.638l444.013,-446.833c5.405,-5.439 14.196,-5.469 19.635,-0.061l63.756,63.353c5.44,5.405 5.469,14.197 0.064,19.636l-444.013,446.835c-5.405,5.439 -14.199,5.467 -19.638,0.061Z" style="fill:#885422;fill-rule:nonzero;stroke:#231f20;stroke-width:16px;"/><path d="M816.411,2480.13l548.281,0" style="fill:#fff;fill-rule:nonzero;stroke:#231f20;stroke-width:16px;stroke-linecap:round;"/><path d="M1138.8,2478.12l-89.879,0c-7.668,0 -13.886,-6.218 -13.886,-13.887l0,-2090.41c0,-7.669 6.218,-13.887 13.886,-13.887l89.879,0c7.669,0 13.887,6.218 13.887,13.887l0,2090.41c0,7.669 -6.218,13.887 -13.887,13.887Z" style="fill:#885422;fill-rule:nonzero;stroke:#231f20;stroke-width:16px;"/><path d="M990.252,461.91l0,-89.879c0,-7.669 6.218,-13.887 13.886,-13.887l1193.23,0c7.671,0 13.887,6.218 13.887,13.887l0,89.879c0,7.669 -6.216,13.886 -13.887,13.886l-1193.23,0c-7.668,0 -13.886,-6.217 -13.886,-13.886Z" style="fill:#885422;fill-rule:nonzero;stroke:#231f20;stroke-width:16px;"/></g></svg>