<?xml version="1.0" encoding="UTF-8" standalone="no"?><!DOCTYPE svg PUBLIC "-//W3C//DTD SVG 1.1//EN" "http://www.w3.org/Graphics/SVG/1.1/DTD/svg11.dtd"><svg width="100%" height="100%" viewBox="0 0 3200 2800" version="1.1" xmlns="http://www.w3.org/2000/svg" xmlns:xlink="http://www.w3.org/1999/xlink" xml:space="preserve" xmlns:serif="http://www.serif.com/" style="fill-rule:evenodd;clip-rule:evenodd;stroke-miterlimit:10;"><g id="Layer-1" serif:id="Layer 1"><path d="M2021.76,480.538l0,591.525l-92.975,0l0,-591.525" style="fill:#eadfc1;fill-rule:nonzero;stroke:#231f20;stroke-width:16px;"/><path d="M2031.56,1133.85l-133.504,0c-27.434,0 -49.672,-22.239 -49.672,-49.671l0,-2.935c0,-27.432 22.238,-49.671 49.672,-49.671l133.504,0c27.433,0 49.67,22.239 49.67,49.671l0,2.935c0,27.432 -22.237,49.671 -49.67,49.671Z" style="fill:#eadfc1;fill-rule:nonzero;stroke:#231f20;stroke-width:16px;"/><path d="M1103.44,918.766l-63.756,-63.353c-5.439,-5.405 -5.469,-14.196 -0.061,-19.638l444.013,-446.833c5.405,-5.439 14.196,-5.469 19.635,-0.061l63.756,63.353c5.44,5.405 5.469,14.197 0.064,19.636l-444.013,446.835c-5.405,5.439 -14.199,5.467 -19.638,0.061Z" style="fill:#885422;fill-rule:nonzero;stroke:#231f20;stroke-width:16px;"/><path d="M816.411,2480.13l548.281,0" style="fill:#fff;fill-rule:nonzero;stroke:#231f20;stroke-width:16px;stroke-linecap:round;"/><path d="M1138.8,2478.12l-89.879,0c-7.668,0 -13.886,-6.218 -13.886,-13.887l0,-2090.41c0,-7.669 6.218,-13.887 13.886,-13.887l89.879,0c7.669,0 13.887,6.218 13.887,13.887l0,2090.41c0,7.669 -6.218,13.887 -13.887,13.887Z" style="fill:#885422;fill-rule:nonzero;stroke:#231f20;stroke-width:16px;"/><path d="M990.252,461.91l0,-89.879c0,-7.669 6.218,-13.887 13.886,-13.887l1193.23,0c7.671,0 13.887,6.218 13.887,13.887l0,89.879c0,7.669 -6.216,13.886 -13.887,13.886l-1193.23,0c-7.668,0 -13.886,-6.217 -13.886,-13.886Z" style="fill:#885422;fill-rule:nonzero;stroke:#231f20;stroke-width:16px;"/><path d="M2070.51,1119.62l-229.684,0c-70.384,0 -135.222,38.131 -169.405,99.655c-73.783,132.797 -192.954,351.166 -192.954,351.166c-19.342,35.757 -6.035,80.42 29.719,99.759l0.003,0c35.754,19.342 80.417,6.035 99.759,-29.719l136.6,-252.539l0,775.599c0,46.212 35.935,85.572 82.12,87.213c48.486,1.725 88.335,-37.069 88.335,-85.171l0,-389.331c0,-20.326 16.476,-36.802 36.802,-36.802c20.324,0 36.802,16.476 36.802,36.802l0,387.289c0,46.212 35.936,85.572 82.118,87.213c48.486,1.725 88.335,-37.069 88.335,-85.171l0,-791.965l144.35,266.863c19.34,35.754 64.003,49.061 99.76,29.719c35.754,-19.339 49.061,-64.002 29.722,-99.759c0,0 -119.189,-218.376 -192.979,-351.175c-34.186,-61.52 -99.024,-99.646 -169.403,-99.646" style="fill:#030404;fill-rule:nonzero;"/><path d="M2217.17,980.153c0,92 -74.58,166.58 -166.58,166.58c-92,0 -166.577,-74.58 -166.577,-166.58c0,-92 74.577,-166.58 166.577,-166.58c92,0 166.58,74.58 166.58,166.58" style="fill:#030404;fill-rule:nonzero;"/></g></svg>