<?xml version="1.0" encoding="UTF-8" standalone="no"?><!DOCTYPE svg PUBLIC "-//W3C//DTD SVG 1.1//EN" "http://www.w3.org/Graphics/SVG/1.1/DTD/svg11.dtd"><svg width="100%" height="100%" viewBox="0 0 777 484" version="1.1" xmlns="http://www.w3.org/2000/svg" xmlns:xlink="http://www.w3.org/1999/xlink" xml:space="preserve" xmlns:serif="http://www.serif.com/" style="fill-rule:evenodd;clip-rule:evenodd;stroke-linejoin:round;stroke-miterlimit:1.41421;"><path d="M494.972,295.6l2.412,-9.625l4.957,-2.804c0,0 -16.593,-1.032 -26.975,4.523l-6.393,12.954c0,0 16.841,-5.558 25.999,-5.048" style="fill:#08b9c3;fill-rule:nonzero;"/><g><g><clipPath id="_clip1"><rect x="468.972" y="283.096" width="33.37" height="17.552" clip-rule="nonzero"/></clipPath><g clip-path="url(#_clip1)"><path d="M494.972,295.6l2.412,-9.625l4.957,-2.804c0,0 -16.593,-1.032 -26.975,4.523l-6.393,12.954c0,0 16.841,-5.558 25.999,-5.048" style="fill:#08b9c3;fill-rule:nonzero;"/></g></g></g><path d="M487.098,274.318c16.212,-5.719 34.92,-0.144 34.92,-0.144l5.406,-13.402c-14.051,-5.915 -32.293,1.534 -32.293,1.534l-1.951,5.813l-6.082,6.199Z" style="fill:#08b9c3;fill-rule:nonzero;"/><g><g><clipPath id="_clip2"><rect x="487.098" y="258.489" width="40.326" height="15.83" clip-rule="nonzero"/></clipPath><g clip-path="url(#_clip2)"><path d="M487.098,274.318c16.212,-5.719 34.92,-0.144 34.92,-0.144l5.406,-13.402c-14.051,-5.915 -32.293,1.534 -32.293,1.534l-1.951,5.813l-6.082,6.199Z" style="fill:#08b9c3;fill-rule:nonzero;"/></g></g></g><path d="M488.043,239.364l33.975,34.81c0,0 4.939,-5.8 5.406,-13.401l-33.975,-34.809c-4.938,5.797 -5.406,13.4 -5.406,13.4" style="fill:#08b9c3;fill-rule:nonzero;"/><path d="M487.098,274.318l7.874,21.282c0,0 5.757,-4.985 7.37,-12.429l-7.211,-20.865c-6.021,4.665 -8.033,12.012 -8.033,12.012" style="fill:#08b9c3;fill-rule:nonzero;"/><path d="M456.07,344.309l3.627,12.122c0,0 -0.031,-28.216 27.763,-25.296l-1.947,-14.782c0,0 -27.964,1.459 -29.443,27.956" style="fill:#08b9c3;fill-rule:nonzero;"/><g><g><path d="M456.07,344.309l3.627,12.122c0,0 -0.031,-28.216 27.763,-25.296l-1.947,-14.782c0,0 -27.964,1.459 -29.443,27.956" style="fill:#08b9c3;fill-rule:nonzero;"/></g></g><path d="M474.582,361.191l-1.203,-9.899c0,0 -14.539,2.25 -17.309,-6.983c0,0 -2.342,17.881 18.512,16.882" style="fill:#08b9c3;fill-rule:nonzero;"/><path d="M468.972,300.647l18.487,30.487c0,0 4.489,-6.152 4.384,-13.768l-16.478,-29.673c-5.358,5.411 -6.393,12.954 -6.393,12.954" style="fill:#08b9c3;fill-rule:nonzero;"/><path d="M232.202,176.77c0,0 29.93,-17.674 19.803,-36.08l-7.284,-7.243c0,0 8.129,18.907 -16.14,33.444l2.721,4.798l0.9,5.081Z" style="fill:#ac2c5b;fill-rule:nonzero;"/><path d="M244.057,229.16c0,0 28.645,-12.605 36.778,-29.591c0,0 1.307,-5.033 -4.188,-11.423c0,0 0.6,13.088 -31.643,27.358l0.72,6.74l-1.667,6.916Z" style="fill:#ac2c5b;fill-rule:nonzero;"/><path d="M276.399,242.87l1.283,-12.73c0,0 -20.145,-2.419 -32.679,-14.635l-0.945,13.655c0,0 10.339,11.969 32.341,13.71" style="fill:#ff629b;fill-rule:nonzero;"/><path d="M210.477,137.56l6.588,10.966c0,0 17.588,-10.123 34.941,-7.836l-7.416,-11.508c0,0 -15.446,-3.397 -34.113,8.378" style="fill:#ff629b;fill-rule:nonzero;"/><path d="M280.835,199.568c0,0 -4.941,-19.202 -48.633,-22.799c0,0 -2.396,-3.673 -3.621,-9.878c0,0 30.355,-4.124 48.415,15.521c0,0 7.667,9.447 3.839,17.156" style="fill:#ff629b;fill-rule:nonzero;"/><path d="M128.482,329.155c0,0 0.48,14.44 -14.442,15.883l14.444,10.108c0,0 10.105,-5.295 11.068,-25.991l-11.07,0Z" style="fill:#ff629b;fill-rule:nonzero;"/><path d="M84.927,43.395l-14.181,-2.642c0,0 -10.395,18.904 -5.669,31.191l13.234,7.091c0,0 -5.2,-27.802 6.616,-35.64" style="fill:#ffd35e;fill-rule:nonzero;"/><path d="M128.625,236.852l-14.181,-2.642c0,0 -10.396,18.904 -5.671,31.192l13.235,7.09c0,0 -5.2,-27.801 6.617,-35.64" style="fill:#ffd35e;fill-rule:nonzero;"/><path d="M17.96,342.151l-17.96,27.885l12.288,7.087l19.85,-21.267l-14.178,-13.705Z" style="fill:#00d594;fill-rule:nonzero;"/><path d="M68.534,170.641c0,8.373 -6.785,15.159 -15.158,15.159c-8.372,0 -15.157,-6.786 -15.157,-15.159c0,-8.371 6.785,-15.157 15.157,-15.157c8.373,0 15.158,6.786 15.158,15.157" style="fill:#ff629b;fill-rule:nonzero;"/><path d="M281.644,97.949c0,4.368 -3.54,7.909 -7.909,7.909c-4.368,0 -7.907,-3.541 -7.907,-7.909c0,-4.367 3.539,-7.909 7.907,-7.909c4.369,0 7.909,3.542 7.909,7.909" style="fill:#ff629b;fill-rule:nonzero;"/><path d="M588.08,127.442c0,4.369 -3.541,7.909 -7.909,7.909c-4.368,0 -7.908,-3.54 -7.908,-7.909c0,-4.366 3.54,-7.909 7.908,-7.909c4.368,0 7.909,3.543 7.909,7.909" style="fill:#ff629b;fill-rule:nonzero;"/><path d="M631.441,199.568c0,4.369 -3.541,7.909 -7.909,7.909c-4.368,0 -7.908,-3.54 -7.908,-7.909c0,-4.366 3.54,-7.908 7.908,-7.908c4.368,0 7.909,3.542 7.909,7.908" style="fill:#ff629b;fill-rule:nonzero;"/><path d="M552.243,338.209c0,4.368 -3.541,7.909 -7.909,7.909c-4.368,0 -7.908,-3.541 -7.908,-7.909c0,-4.367 3.54,-7.909 7.908,-7.909c4.368,0 7.909,3.542 7.909,7.909" style="fill:#ff629b;fill-rule:nonzero;"/><path d="M712.364,304.297c0,4.369 -3.541,7.909 -7.909,7.909c-4.368,0 -7.907,-3.54 -7.907,-7.909c0,-4.366 3.539,-7.909 7.907,-7.909c4.368,0 7.909,3.543 7.909,7.909" style="fill:#ff629b;fill-rule:nonzero;"/><path d="M756.42,94.155c0,4.368 -3.541,7.909 -7.909,7.909c-4.368,0 -7.907,-3.541 -7.907,-7.909c0,-4.367 3.539,-7.909 7.907,-7.909c4.368,0 7.909,3.542 7.909,7.909" style="fill:#ff629b;fill-rule:nonzero;"/><path d="M663.609,34.299c0,4.368 -3.541,7.909 -7.909,7.909c-4.368,0 -7.907,-3.541 -7.907,-7.909c0,-4.367 3.539,-7.909 7.907,-7.909c4.368,0 7.909,3.542 7.909,7.909" style="fill:#ff629b;fill-rule:nonzero;"/><path d="M560.151,46.305c0,4.368 -3.541,7.909 -7.909,7.909c-4.368,0 -7.907,-3.541 -7.907,-7.909c0,-4.367 3.539,-7.909 7.907,-7.909c4.368,0 7.909,3.542 7.909,7.909" style="fill:#ff629b;fill-rule:nonzero;"/><path d="M463.596,184.159c0,4.368 -3.541,7.908 -7.909,7.908c-4.368,0 -7.908,-3.54 -7.908,-7.908c0,-4.367 3.54,-7.909 7.908,-7.909c4.368,0 7.909,3.542 7.909,7.909" style="fill:#ff629b;fill-rule:nonzero;"/><path d="M281.644,325.204c0,4.368 -3.54,7.909 -7.909,7.909c-4.368,0 -7.907,-3.541 -7.907,-7.909c0,-4.367 3.539,-7.909 7.907,-7.909c4.369,0 7.909,3.542 7.909,7.909" style="fill:#ff629b;fill-rule:nonzero;"/><path d="M189.187,225.965c0,4.368 -3.54,7.909 -7.909,7.909c-4.368,0 -7.907,-3.541 -7.907,-7.909c0,-4.368 3.539,-7.909 7.907,-7.909c4.369,0 7.909,3.541 7.909,7.909" style="fill:#ff629b;fill-rule:nonzero;"/><path d="M54.559,97.949c0,4.368 -3.541,7.909 -7.909,7.909c-4.368,0 -7.908,-3.541 -7.908,-7.909c0,-4.368 3.54,-7.909 7.908,-7.909c4.368,0 7.909,3.541 7.909,7.909" style="fill:#ff629b;fill-rule:nonzero;"/><path d="M228.248,55.286c0,4.094 -3.319,7.412 -7.413,7.412c-4.094,0 -7.411,-3.318 -7.411,-7.412c0,-4.094 3.317,-7.413 7.411,-7.413c4.094,0 7.413,3.319 7.413,7.413" style="fill:#ff629b;fill-rule:nonzero;"/><path d="M43.6,15.157c0,8.373 -6.785,15.158 -15.157,15.158c-8.373,0 -15.158,-6.785 -15.158,-15.158c0,-8.371 6.785,-15.157 15.158,-15.157c8.372,0 15.157,6.786 15.157,15.157" style="fill:#ff629b;fill-rule:nonzero;"/><path d="M47.997,270.037c0,5.4 -4.377,9.779 -9.777,9.779c-5.4,0 -9.777,-4.379 -9.777,-9.779c0,-5.401 4.377,-9.778 9.777,-9.778c5.4,0 9.777,4.377 9.777,9.778" style="fill:#08b9c3;fill-rule:nonzero;"/><path d="M256.497,290.755c0,8.371 -6.785,15.158 -15.158,15.158c-8.372,0 -15.157,-6.787 -15.157,-15.158c0,-8.371 6.785,-15.159 15.157,-15.159c8.373,0 15.158,6.788 15.158,15.159" style="fill:#ffd35e;fill-rule:nonzero;"/><path d="M307.539,273.309l3.314,6.712l7.405,1.076l-5.359,5.224l1.264,7.377l-6.624,-3.483l-6.622,3.483l1.263,-7.377l-5.36,-5.224l7.406,-1.076l3.313,-6.712Z" style="fill:#08b9c3;fill-rule:nonzero;"/><path d="M71.384,216.472l3.315,6.711l7.406,1.077l-5.361,5.224l1.264,7.376l-6.624,-3.482l-6.622,3.482l1.263,-7.376l-5.358,-5.224l7.405,-1.077l3.312,-6.711Z" style="fill:#00d594;fill-rule:nonzero;"/><path d="M740.603,306.756l3.314,6.711l7.405,1.077l-5.36,5.224l1.265,7.375l-6.624,-3.481l-6.622,3.481l1.262,-7.375l-5.358,-5.224l7.405,-1.077l3.313,-6.711Z" style="fill:#00d594;fill-rule:nonzero;"/><path d="M603.407,35.521l3.315,6.712l7.405,1.076l-5.36,5.224l1.264,7.375l-6.624,-3.481l-6.622,3.481l1.263,-7.375l-5.36,-5.224l7.407,-1.076l3.312,-6.712Z" style="fill:#00d594;fill-rule:nonzero;"/><path d="M507.733,65.573l3.314,6.712l7.405,1.076l-5.36,5.224l1.265,7.375l-6.624,-3.481l-6.622,3.481l1.262,-7.375l-5.358,-5.224l7.405,-1.076l3.313,-6.712Z" style="fill:#00d594;fill-rule:nonzero;"/><path d="M567.824,158.806l3.314,6.712l7.405,1.076l-5.36,5.224l1.265,7.377l-6.624,-3.483l-6.623,3.483l1.263,-7.377l-5.358,-5.224l7.405,-1.076l3.313,-6.712Z" style="fill:#08b9c3;fill-rule:nonzero;"/><path d="M704.454,224.016l3.314,6.712l7.405,1.076l-5.359,5.224l1.264,7.377l-6.624,-3.483l-6.622,3.483l1.263,-7.377l-5.358,-5.224l7.405,-1.076l3.312,-6.712Z" style="fill:#08b9c3;fill-rule:nonzero;"/><path d="M702.413,109.34l3.314,6.711l7.405,1.077l-5.359,5.224l1.264,7.376l-6.624,-3.482l-6.622,3.482l1.263,-7.376l-5.36,-5.224l7.407,-1.077l3.312,-6.711Z" style="fill:#08b9c3;fill-rule:nonzero;"/><path d="M728.956,434.921l3.314,6.712l7.405,1.076l-5.36,5.225l1.265,7.376l-6.624,-3.483l-6.623,3.483l1.263,-7.376l-5.358,-5.225l7.405,-1.076l3.313,-6.712Z" style="fill:#08b9c3;fill-rule:nonzero;"/><path d="M623.532,255.738l3.314,6.712l7.405,1.076l-5.359,5.224l1.264,7.377l-6.624,-3.483l-6.622,3.483l1.263,-7.377l-5.358,-5.224l7.405,-1.076l3.312,-6.712Z" style="fill:#08b9c3;fill-rule:nonzero;"/><path d="M517.116,197.283l3.314,6.712l7.405,1.076l-5.359,5.224l1.264,7.377l-6.624,-3.483l-6.622,3.483l1.262,-7.377l-5.358,-5.224l7.405,-1.076l3.313,-6.712Z" style="fill:#08b9c3;fill-rule:nonzero;"/><path d="M371.204,52.503l3.314,6.712l7.405,1.077l-5.359,5.224l1.264,7.376l-6.624,-3.482l-6.622,3.482l1.263,-7.376l-5.358,-5.224l7.405,-1.077l3.312,-6.712Z" style="fill:#08b9c3;fill-rule:nonzero;"/><path d="M265.827,37.679l3.315,6.712l7.405,1.077l-5.36,5.224l1.264,7.376l-6.624,-3.482l-6.622,3.482l1.263,-7.376l-5.358,-5.224l7.405,-1.077l3.312,-6.712Z" style="fill:#08b9c3;fill-rule:nonzero;"/><path d="M165.773,170.277l3.315,6.712l7.406,1.076l-5.361,5.224l1.264,7.377l-6.624,-3.483l-6.622,3.483l1.263,-7.377l-5.358,-5.224l7.405,-1.076l3.312,-6.712Z" style="fill:#08b9c3;fill-rule:nonzero;"/><path d="M181.279,283.032l4.791,9.709l10.712,1.556l-7.752,7.556l1.83,10.67l-9.581,-5.038l-9.582,5.038l1.831,-10.67l-7.752,-7.556l10.711,-1.556l4.792,-9.709Z" style="fill:#ff8249;fill-rule:nonzero;"/><path d="M141.285,123.135l2.359,-9.638l4.942,-2.831c0,0 -16.598,-0.944 -26.95,4.668l-6.323,12.989c0,0 16.811,-5.648 25.972,-5.188" style="fill:#08b9c3;fill-rule:nonzero;"/><g><g><clipPath id="_clip3"><rect x="115.313" y="110.605" width="33.273" height="17.719" clip-rule="nonzero"/></clipPath><g clip-path="url(#_clip3)"><path d="M141.285,123.135l2.359,-9.638l4.942,-2.831c0,0 -16.598,-0.944 -26.95,4.668l-6.323,12.989c0,0 16.811,-5.648 25.972,-5.188" style="fill:#08b9c3;fill-rule:nonzero;"/></g></g></g><path d="M133.295,101.896c16.18,-5.808 34.92,-0.335 34.92,-0.335l5.332,-13.428c-14.083,-5.841 -32.285,1.71 -32.285,1.71l-1.918,5.822l-6.049,6.231Z" style="fill:#08b9c3;fill-rule:nonzero;"/><g><g><clipPath id="_clip4"><rect x="133.295" y="85.917" width="40.251" height="15.98" clip-rule="nonzero"/></clipPath><g clip-path="url(#_clip4)"><path d="M133.295,101.896c16.18,-5.808 34.92,-0.335 34.92,-0.335l5.332,-13.428c-14.083,-5.841 -32.285,1.71 -32.285,1.71l-1.918,5.822l-6.049,6.231Z" style="fill:#08b9c3;fill-rule:nonzero;"/></g></g></g><path d="M134.051,66.937l34.164,34.625c0,0 4.906,-5.826 5.331,-13.429l-34.164,-34.625c-4.905,5.824 -5.331,13.429 -5.331,13.429" style="fill:#08b9c3;fill-rule:nonzero;"/><path d="M133.295,101.896l7.99,21.239c0,0 5.731,-5.017 7.302,-12.469l-7.325,-20.823c-5.996,4.696 -7.967,12.053 -7.967,12.053" style="fill:#08b9c3;fill-rule:nonzero;"/><path d="M102.65,172.057l3.694,12.101c0,0 -0.185,-28.215 27.623,-25.448l-2.028,-14.772c0,0 -27.955,1.612 -29.289,28.119" style="fill:#08b9c3;fill-rule:nonzero;"/><g><g><path d="M102.65,172.057l3.694,12.101c0,0 -0.185,-28.215 27.623,-25.448l-2.028,-14.772c0,0 -27.955,1.612 -29.289,28.119" style="fill:#08b9c3;fill-rule:nonzero;"/></g></g><path d="M121.253,188.836l-1.256,-9.892c0,0 -14.527,2.329 -17.348,-6.886c0,0 -2.244,17.891 18.604,16.778" style="fill:#08b9c3;fill-rule:nonzero;"/><path d="M115.313,128.324l18.654,30.385c0,0 4.455,-6.177 4.307,-13.791l-16.638,-29.584c-5.328,5.439 -6.323,12.99 -6.323,12.99" style="fill:#08b9c3;fill-rule:nonzero;"/><path d="M689.504,375.265c0,0 23.197,13.051 31.507,-0.72l2.004,-7.605c0,0 -9.409,12.641 -28.353,2.135l-2.136,3.645l-3.022,2.545Z" style="fill:#ac2c5b;fill-rule:nonzero;"/><path d="M659.339,403.222c0,0 19.344,14.145 33.717,13.015c0,0 3.837,-1.063 5.965,-7.156c0,0 -8.445,5.417 -30.272,-10.472l-4.188,3.064l-5.222,1.549Z" style="fill:#ac2c5b;fill-rule:nonzero;"/><path d="M662.663,429.911l8.927,-4.033c0,0 -6.126,-14.277 -2.84,-27.269l-9.41,4.613c0,0 -3.966,11.442 3.323,26.689" style="fill:#ff629b;fill-rule:nonzero;"/><path d="M707.152,345.825l-4.739,8.574c0,0 13.456,7.771 18.598,20.146l4.78,-9.328c0,0 -3.675,-11.539 -18.639,-19.392" style="fill:#ff629b;fill-rule:nonzero;"/><path d="M693.056,416.237c0,0 10.831,-10.64 -3.553,-40.971c0,0 1.518,-2.998 5.159,-6.192c0,0 14.38,18.535 8.292,38.038c0,0 -3.319,8.705 -9.898,9.125" style="fill:#ff629b;fill-rule:nonzero;"/><path d="M42.84,427.324l1.002,9.611c33.007,6.822 41.393,25.971 41.393,25.971l-1.285,-14.181c-5.939,-12.721 -41.11,-21.401 -41.11,-21.401" style="fill:#ffd35e;fill-rule:nonzero;"/><path d="M87.871,409.789c0,0 -9.951,-15.886 -39.627,-32.366c0,0 -1.713,4.784 -0.322,11.537c0,0 35.648,22.928 37.582,32.549c0,0 4.371,-4.568 2.367,-11.72" style="fill:#ffd35e;fill-rule:nonzero;"/><path d="M49.135,336.926c0,0 6.36,13.838 36.036,30.317c0,0 6.058,-1.836 4.669,-8.591c0,0 -36.405,-23.826 -38.337,-33.448c0,0 -4.371,4.566 -2.368,11.722" style="fill:#ffd35e;fill-rule:nonzero;"/><g><g><path d="M42.84,427.324l1.002,9.611c33.007,6.822 41.393,25.971 41.393,25.971l-1.285,-14.181c-5.939,-12.721 -41.11,-21.401 -41.11,-21.401" style="fill:#ffd35e;fill-rule:nonzero;"/></g></g><g><g><clipPath id="_clip5"><rect x="47.378" y="377.423" width="41.018" height="44.086" clip-rule="nonzero"/></clipPath><g clip-path="url(#_clip5)"><path d="M87.871,409.789c0,0 -9.951,-15.886 -39.627,-32.366c0,0 -1.713,4.784 -0.322,11.537c0,0 35.648,22.928 37.582,32.549c0,0 4.371,-4.568 2.367,-11.72" style="fill:#ffd35e;fill-rule:nonzero;"/></g></g></g><g><g><clipPath id="_clip6"><rect x="48.61" y="325.204" width="41.437" height="42.039" clip-rule="nonzero"/></clipPath><g clip-path="url(#_clip6)"><path d="M49.135,336.926c0,0 6.36,13.838 36.036,30.317c0,0 6.058,-1.836 4.669,-8.591c0,0 -36.405,-23.826 -38.337,-33.448c0,0 -4.371,4.566 -2.368,11.722" style="fill:#ffd35e;fill-rule:nonzero;"/></g></g></g><g><g><path d="M42.84,427.324l1.002,9.611c33.007,6.822 41.393,25.971 41.393,25.971l-1.285,-14.181c-5.939,-12.721 -41.11,-21.401 -41.11,-21.401" style="fill:#ffd35e;fill-rule:nonzero;"/></g></g><g><g><clipPath id="_clip7"><rect x="47.378" y="377.423" width="41.018" height="44.086" clip-rule="nonzero"/></clipPath><g clip-path="url(#_clip7)"><path d="M87.871,409.789c0,0 -9.951,-15.886 -39.627,-32.366c0,0 -1.713,4.784 -0.322,11.537c0,0 35.648,22.928 37.582,32.549c0,0 4.371,-4.568 2.367,-11.72" style="fill:#ffd35e;fill-rule:nonzero;"/></g></g></g><g><g><clipPath id="_clip8"><rect x="48.61" y="325.204" width="41.437" height="42.039" clip-rule="nonzero"/></clipPath><g clip-path="url(#_clip8)"><path d="M49.135,336.926c0,0 6.36,13.838 36.036,30.317c0,0 6.058,-1.836 4.669,-8.591c0,0 -36.405,-23.826 -38.337,-33.448c0,0 -4.371,4.566 -2.368,11.722" style="fill:#ffd35e;fill-rule:nonzero;"/></g></g></g><g><g><path d="M42.84,427.324l1.002,9.611c33.007,6.822 41.393,25.971 41.393,25.971l-1.285,-14.181c-5.939,-12.721 -41.11,-21.401 -41.11,-21.401" style="fill:#ffd35e;fill-rule:nonzero;"/></g></g><g><g><clipPath id="_clip9"><rect x="47.378" y="377.423" width="41.018" height="44.086" clip-rule="nonzero"/></clipPath><g clip-path="url(#_clip9)"><path d="M87.871,409.789c0,0 -9.951,-15.886 -39.627,-32.366c0,0 -1.713,4.784 -0.322,11.537c0,0 35.648,22.928 37.582,32.549c0,0 4.371,-4.568 2.367,-11.72" style="fill:#ffd35e;fill-rule:nonzero;"/></g></g></g><g><g><clipPath id="_clip10"><rect x="48.61" y="325.204" width="41.437" height="42.039" clip-rule="nonzero"/></clipPath><g clip-path="url(#_clip10)"><path d="M49.135,336.926c0,0 6.36,13.838 36.036,30.317c0,0 6.058,-1.836 4.669,-8.591c0,0 -36.405,-23.826 -38.337,-33.448c0,0 -4.371,4.566 -2.368,11.722" style="fill:#ffd35e;fill-rule:nonzero;"/></g></g></g><path d="M93.731,311.325l0.646,8.608c0,0 -32.73,1.202 -45.264,16.957c0,0 -10.011,-21.74 44.618,-25.565" style="fill:#ffd35e;fill-rule:nonzero;"/><path d="M87.871,409.789c0,0 0.309,16.28 -45.031,17.535c0,0 -1.796,6.089 1.002,9.612c0,0 52.042,-0.213 44.029,-27.147" style="fill:#ffd35e;fill-rule:nonzero;"/><path d="M47.923,388.96c0,0 -1.506,-16.214 43.623,-20.794c0,0 1.339,-6.202 -1.707,-9.513c0,0 -51.887,4.034 -41.916,30.307" style="fill:#ffd35e;fill-rule:nonzero;"/><path d="M83.95,448.726c0,0 -1.435,19.588 -9.504,28.76l6.825,5.535c0,0 12.529,-17.273 2.679,-34.295" style="fill:#ffd35e;fill-rule:nonzero;"/><path d="M648.472,329.155c0,0 -0.48,14.44 14.442,15.883l-14.444,10.108c0,0 -10.105,-5.295 -11.068,-25.991l11.07,0Z" style="fill:#ff629b;fill-rule:nonzero;"/><path d="M324.633,9.768c0,0 -0.48,14.441 14.44,15.884l-14.442,10.108c0,0 -10.105,-5.296 -11.068,-25.992l11.07,0Z" style="fill:#ff629b;fill-rule:nonzero;"/><path d="M85.201,274.697c0,0 -0.343,10.319 10.32,11.35l-10.322,7.223c0,0 -7.221,-3.783 -7.908,-18.573l7.91,0Z" style="fill:#ff629b;fill-rule:nonzero;"/><path d="M326.319,165.803l-8.972,11.295c0,0 -20.249,-7.453 -24.738,-19.828l5.34,-14.032c0,0 14.308,24.396 28.37,22.565" style="fill:#00d594;fill-rule:nonzero;"/><path d="M93.907,129.338l-6.717,8.456c0,0 -15.159,-5.58 -18.52,-14.844l3.999,-10.505c0,0 10.71,18.265 21.238,16.893" style="fill:#00d594;fill-rule:nonzero;"/><path d="M616.026,353.285l-6.718,8.456c0,0 -15.159,-5.58 -18.519,-14.845l3.998,-10.504c0,0 10.71,18.264 21.239,16.893" style="fill:#00d594;fill-rule:nonzero;"/><path d="M692.027,43.395l14.181,-2.642c0,0 10.395,18.904 5.669,31.191l-13.232,7.091c0,0 5.198,-27.802 -6.618,-35.64" style="fill:#ffd35e;fill-rule:nonzero;"/><path d="M309.877,80.909l11.277,-2.101c0,0 8.265,15.032 4.508,24.803l-10.524,5.637c0,0 4.136,-22.106 -5.261,-28.339" style="fill:#ffd35e;fill-rule:nonzero;"/><path d="M648.329,236.852l14.181,-2.642c0,0 10.396,18.904 5.67,31.192l-13.234,7.09c0,0 5.2,-27.801 -6.617,-35.64" style="fill:#ffd35e;fill-rule:nonzero;"/><g><g opacity="0.149994"><clipPath id="_clip11"><path d="M622.35,476.798l21.084,0l0,-38.281l-21.084,0l0,38.281Z" clip-rule="nonzero"/></clipPath><g clip-path="url(#_clip11)"><path d="M642.201,469.708c4.726,-12.286 -5.671,-31.191 -5.671,-31.191l-14.179,2.643c11.815,7.839 6.616,35.639 6.616,35.639l13.234,-7.091Z" style="fill-rule:nonzero;"/></g></g></g><path d="M410.278,255.678l0,28.357l-13.233,0l3.781,-28.357l9.452,0Z" style="fill:#08b9c3;fill-rule:nonzero;"/><path d="M390.889,93.226l-5.484,27.821l-12.984,-2.56l9.194,-27.09l9.274,1.829Z" style="fill:#08b9c3;fill-rule:nonzero;"/><path d="M758.994,342.151l17.96,27.885l-12.288,7.087l-19.85,-21.267l14.178,-13.705Z" style="fill:#00d594;fill-rule:nonzero;"/><path d="M708.42,170.641c0,8.373 6.785,15.159 15.158,15.159c8.372,0 15.157,-6.786 15.157,-15.159c0,-8.371 -6.785,-15.157 -15.157,-15.157c-8.373,0 -15.158,6.786 -15.158,15.157" style="fill:#ff629b;fill-rule:nonzero;"/><path d="M557.105,224.378c0,8.372 6.785,15.159 15.158,15.159c8.372,0 15.157,-6.787 15.157,-15.159c0,-8.371 -6.785,-15.158 -15.157,-15.158c-8.373,0 -15.158,6.787 -15.158,15.158" style="fill:#08b9c3;fill-rule:nonzero;"/><path d="M106.096,22.764c0,8.371 6.785,15.159 15.157,15.159c8.373,0 15.158,-6.788 15.158,-15.159c0,-8.37 -6.785,-15.158 -15.158,-15.158c-8.372,0 -15.157,6.788 -15.157,15.158" style="fill:#08b9c3;fill-rule:nonzero;"/><path d="M476.687,22.764c0,8.372 6.785,15.157 15.158,15.157c8.372,0 15.157,-6.785 15.157,-15.157c0,-8.371 -6.785,-15.158 -15.157,-15.158c-8.373,0 -15.158,6.787 -15.158,15.158" style="fill:#08b9c3;fill-rule:nonzero;"/><path d="M733.354,15.157c0,8.373 6.785,15.158 15.157,15.158c8.373,0 15.158,-6.785 15.158,-15.158c0,-8.371 -6.785,-15.157 -15.158,-15.157c-8.372,0 -15.157,6.786 -15.157,15.157" style="fill:#ff629b;fill-rule:nonzero;"/><path d="M728.957,270.037c0,5.4 4.376,9.779 9.777,9.779c5.4,0 9.777,-4.379 9.777,-9.779c0,-5.401 -4.377,-9.778 -9.777,-9.778c-5.401,0 -9.777,4.377 -9.777,9.778" style="fill:#08b9c3;fill-rule:nonzero;"/><path d="M529.177,94.155c0,8.372 6.785,15.158 15.157,15.158c8.373,0 15.158,-6.786 15.158,-15.158c0,-8.371 -6.785,-15.158 -15.158,-15.158c-8.372,0 -15.157,6.787 -15.157,15.158" style="fill:#ffd35e;fill-rule:nonzero;"/><path d="M431.331,244.224c0,8.371 6.785,15.156 15.158,15.156c8.372,0 15.157,-6.785 15.157,-15.156c0,-8.371 -6.785,-15.159 -15.157,-15.159c-8.373,0 -15.158,6.788 -15.158,15.159" style="fill:#ffd35e;fill-rule:nonzero;"/><path d="M397.675,42.208c0,8.371 6.785,15.157 15.158,15.157c8.372,0 15.157,-6.786 15.157,-15.157c0,-8.371 -6.785,-15.159 -15.157,-15.159c-8.373,0 -15.158,6.788 -15.158,15.159" style="fill:#ffd35e;fill-rule:nonzero;"/><path d="M595.675,283.032l-4.791,9.709l-10.712,1.556l7.752,7.556l-1.83,10.67l9.581,-5.038l9.582,5.038l-1.831,-10.67l7.752,-7.556l-10.711,-1.556l-4.792,-9.709Z" style="fill:#ff8249;fill-rule:nonzero;"/><path d="M635.669,123.135l-2.359,-9.638l-4.942,-2.831c0,0 16.598,-0.944 26.95,4.668l6.323,12.989c0,0 -16.811,-5.648 -25.972,-5.188" style="fill:#08b9c3;fill-rule:nonzero;"/><g><g><clipPath id="_clip12"><rect x="628.367" y="110.605" width="33.273" height="17.719" clip-rule="nonzero"/></clipPath><g clip-path="url(#_clip12)"><path d="M635.669,123.135l-2.359,-9.638l-4.942,-2.831c0,0 16.598,-0.944 26.95,4.668l6.323,12.989c0,0 -16.811,-5.648 -25.972,-5.188" style="fill:#08b9c3;fill-rule:nonzero;"/></g></g></g><path d="M643.659,101.896c-16.18,-5.808 -34.92,-0.335 -34.92,-0.335l-5.332,-13.428c14.083,-5.841 32.285,1.71 32.285,1.71l1.918,5.822l6.049,6.231Z" style="fill:#08b9c3;fill-rule:nonzero;"/><g><g><clipPath id="_clip13"><rect x="603.407" y="85.917" width="40.251" height="15.98" clip-rule="nonzero"/></clipPath><g clip-path="url(#_clip13)"><path d="M643.659,101.896c-16.18,-5.808 -34.92,-0.335 -34.92,-0.335l-5.332,-13.428c14.083,-5.841 32.285,1.71 32.285,1.71l1.918,5.822l6.049,6.231Z" style="fill:#08b9c3;fill-rule:nonzero;"/></g></g></g><path d="M642.903,66.937l-34.164,34.625c0,0 -4.906,-5.826 -5.331,-13.429l34.164,-34.625c4.905,5.824 5.331,13.429 5.331,13.429" style="fill:#08b9c3;fill-rule:nonzero;"/><path d="M643.659,101.896l-7.99,21.239c0,0 -5.731,-5.017 -7.302,-12.469l7.325,-20.823c5.996,4.696 7.967,12.053 7.967,12.053" style="fill:#08b9c3;fill-rule:nonzero;"/><path d="M674.304,172.057l-3.694,12.101c0,0 0.186,-28.215 -27.623,-25.448l2.028,-14.772c0,0 27.955,1.612 29.289,28.119" style="fill:#08b9c3;fill-rule:nonzero;"/><g><g><path d="M674.304,172.057l-3.694,12.101c0,0 0.186,-28.215 -27.623,-25.448l2.028,-14.772c0,0 27.955,1.612 29.289,28.119" style="fill:#08b9c3;fill-rule:nonzero;"/></g></g><path d="M655.701,188.836l1.256,-9.892c0,0 14.527,2.329 17.346,-6.886c0,0 2.246,17.891 -18.602,16.778" style="fill:#08b9c3;fill-rule:nonzero;"/><path d="M661.641,128.324l-18.654,30.385c0,0 -4.455,-6.177 -4.307,-13.791l16.638,-29.584c5.328,5.439 6.323,12.99 6.323,12.99" style="fill:#08b9c3;fill-rule:nonzero;"/><path d="M358.437,164.074l5.297,-10.156c39.348,6.882 56.936,-10.56 56.936,-10.56l-7.599,15.064c-12.092,11.427 -54.634,5.652 -54.634,5.652" style="fill:#00d594;fill-rule:nonzero;"/><path d="M400.411,203.035c0,0 -18.823,13.289 -58.711,18.506c0,0 1.248,-10.081 6.281,-12.622c0,0 48.606,-10.075 54.932,-19.831c0,0 2.823,6.939 -2.502,13.947" style="fill:#00d594;fill-rule:nonzero;"/><g><g><clipPath id="_clip14"><rect x="358.438" y="143.359" width="62.232" height="22.175" clip-rule="nonzero"/></clipPath><g clip-path="url(#_clip14)"><path d="M358.437,164.074l5.297,-10.156c39.348,6.882 56.936,-10.56 56.936,-10.56l-7.599,15.064c-12.092,11.427 -54.634,5.652 -54.634,5.652" style="fill:#00d594;fill-rule:nonzero;"/></g></g></g><g><g><clipPath id="_clip15"><rect x="341.7" y="189.087" width="61.961" height="32.453" clip-rule="nonzero"/></clipPath><g clip-path="url(#_clip15)"><path d="M400.411,203.035c0,0 -18.823,13.289 -58.711,18.506c0,0 1.248,-10.081 6.281,-12.622c0,0 48.606,-10.075 54.932,-19.831c0,0 2.823,6.939 -2.502,13.947" style="fill:#00d594;fill-rule:nonzero;"/></g></g></g><g><g><clipPath id="_clip16"><rect x="358.438" y="143.359" width="62.232" height="22.175" clip-rule="nonzero"/></clipPath><g clip-path="url(#_clip16)"><path d="M358.437,164.074l5.297,-10.156c39.348,6.882 56.936,-10.56 56.936,-10.56l-7.599,15.064c-12.092,11.427 -54.634,5.652 -54.634,5.652" style="fill:#00d594;fill-rule:nonzero;"/></g></g></g><g><g><clipPath id="_clip17"><rect x="341.7" y="189.087" width="61.961" height="32.453" clip-rule="nonzero"/></clipPath><g clip-path="url(#_clip17)"><path d="M400.411,203.035c0,0 -18.823,13.289 -58.711,18.506c0,0 1.248,-10.081 6.281,-12.622c0,0 48.606,-10.075 54.932,-19.831c0,0 2.823,6.939 -2.502,13.947" style="fill:#00d594;fill-rule:nonzero;"/></g></g></g><g><g><clipPath id="_clip18"><rect x="358.438" y="143.359" width="62.232" height="22.175" clip-rule="nonzero"/></clipPath><g clip-path="url(#_clip18)"><path d="M358.437,164.074l5.297,-10.156c39.348,6.882 56.936,-10.56 56.936,-10.56l-7.599,15.064c-12.092,11.427 -54.634,5.652 -54.634,5.652" style="fill:#00d594;fill-rule:nonzero;"/></g></g></g><g><g><clipPath id="_clip19"><rect x="341.7" y="189.087" width="61.961" height="32.453" clip-rule="nonzero"/></clipPath><g clip-path="url(#_clip19)"><path d="M400.411,203.035c0,0 -18.823,13.289 -58.711,18.506c0,0 1.248,-10.081 6.281,-12.622c0,0 48.606,-10.075 54.932,-19.831c0,0 2.823,6.939 -2.502,13.947" style="fill:#00d594;fill-rule:nonzero;"/></g></g></g><path d="M348.041,269.856l9.222,-4.419c0,0 -18.076,-34.345 -9.282,-56.518c0,0 -23.106,2.718 0.06,60.937" style="fill:#00d594;fill-rule:nonzero;"/><path d="M400.411,203.035c0,0 7.441,-17.802 -41.973,-38.962c0,0 0.678,-7.49 5.295,-10.155c0,0 57.253,22.932 36.678,49.117" style="fill:#00d594;fill-rule:nonzero;"/><path d="M413.072,158.421c0,0 6.962,-22.206 2.07,-35.834l9.935,-3.122c0,0 6.274,24.499 -12.005,38.956" style="fill:#00d594;fill-rule:nonzero;"/><path d="M450.86,111.072l-4.372,-6.738c17.782,-21.646 13.206,-38.408 13.206,-38.408l6.573,9.842c2.802,11.327 -15.407,35.304 -15.407,35.304" style="fill:#ffd35e;fill-rule:nonzero;"/><path d="M489.134,98.899c0,0 1.859,15.469 -8.726,41.62c0,0 -3.605,-2.201 -6.232,-7.294c0,0 11.08,-33.439 7.307,-40.668c0,0 5.212,0.671 7.651,6.342" style="fill:#ffd35e;fill-rule:nonzero;"/><path d="M502.131,166.239c0,0 -3.116,-12.269 7.472,-38.419c0,0 4.875,-1.976 7.503,3.117c0,0 -11.098,34.416 -7.324,41.647c0,0 -5.211,-0.671 -7.651,-6.345" style="fill:#ffd35e;fill-rule:nonzero;"/><g><g><clipPath id="_clip20"><rect x="446.489" y="65.927" width="20.071" height="45.144" clip-rule="nonzero"/></clipPath><g clip-path="url(#_clip20)"><path d="M450.86,111.072l-4.372,-6.738c17.782,-21.646 13.206,-38.408 13.206,-38.408l6.573,9.842c2.802,11.327 -15.407,35.304 -15.407,35.304" style="fill:#ffd35e;fill-rule:nonzero;"/></g></g></g><g><g><clipPath id="_clip21"><rect x="474.175" y="92.555" width="15.084" height="47.962" clip-rule="nonzero"/></clipPath><g clip-path="url(#_clip21)"><path d="M489.134,98.899c0,0 1.859,15.469 -8.726,41.62c0,0 -3.605,-2.201 -6.232,-7.294c0,0 11.08,-33.439 7.307,-40.668c0,0 5.212,0.671 7.651,6.342" style="fill:#ffd35e;fill-rule:nonzero;"/></g></g></g><g><g><clipPath id="_clip22"><rect x="501.704" y="127.443" width="15.402" height="45.141" clip-rule="nonzero"/></clipPath><g clip-path="url(#_clip22)"><path d="M502.131,166.239c0,0 -3.116,-12.269 7.472,-38.419c0,0 4.875,-1.976 7.503,3.117c0,0 -11.098,34.416 -7.324,41.647c0,0 -5.211,-0.671 -7.651,-6.345" style="fill:#ffd35e;fill-rule:nonzero;"/></g></g></g><g><g><clipPath id="_clip23"><rect x="446.489" y="65.927" width="20.071" height="45.144" clip-rule="nonzero"/></clipPath><g clip-path="url(#_clip23)"><path d="M450.86,111.072l-4.372,-6.738c17.782,-21.646 13.206,-38.408 13.206,-38.408l6.573,9.842c2.802,11.327 -15.407,35.304 -15.407,35.304" style="fill:#ffd35e;fill-rule:nonzero;"/></g></g></g><g><g><clipPath id="_clip24"><rect x="474.175" y="92.555" width="15.084" height="47.962" clip-rule="nonzero"/></clipPath><g clip-path="url(#_clip24)"><path d="M489.134,98.899c0,0 1.859,15.469 -8.726,41.62c0,0 -3.605,-2.201 -6.232,-7.294c0,0 11.08,-33.439 7.307,-40.668c0,0 5.212,0.671 7.651,6.342" style="fill:#ffd35e;fill-rule:nonzero;"/></g></g></g><g><g><clipPath id="_clip25"><rect x="501.704" y="127.443" width="15.402" height="45.141" clip-rule="nonzero"/></clipPath><g clip-path="url(#_clip25)"><path d="M502.131,166.239c0,0 -3.116,-12.269 7.472,-38.419c0,0 4.875,-1.976 7.503,3.117c0,0 -11.098,34.416 -7.324,41.647c0,0 -5.211,-0.671 -7.651,-6.345" style="fill:#ffd35e;fill-rule:nonzero;"/></g></g></g><g><g><clipPath id="_clip26"><rect x="446.489" y="65.927" width="20.071" height="45.144" clip-rule="nonzero"/></clipPath><g clip-path="url(#_clip26)"><path d="M450.86,111.072l-4.372,-6.738c17.782,-21.646 13.206,-38.408 13.206,-38.408l6.573,9.842c2.802,11.327 -15.407,35.304 -15.407,35.304" style="fill:#ffd35e;fill-rule:nonzero;"/></g></g></g><g><g><clipPath id="_clip27"><rect x="474.175" y="92.555" width="15.084" height="47.962" clip-rule="nonzero"/></clipPath><g clip-path="url(#_clip27)"><path d="M489.134,98.899c0,0 1.859,15.469 -8.726,41.62c0,0 -3.605,-2.201 -6.232,-7.294c0,0 11.08,-33.439 7.307,-40.668c0,0 5.212,0.671 7.651,6.342" style="fill:#ffd35e;fill-rule:nonzero;"/></g></g></g><g><g><clipPath id="_clip28"><rect x="501.704" y="127.443" width="15.402" height="45.141" clip-rule="nonzero"/></clipPath><g clip-path="url(#_clip28)"><path d="M502.131,166.239c0,0 -3.116,-12.269 7.472,-38.419c0,0 4.875,-1.976 7.503,3.117c0,0 -11.098,34.416 -7.324,41.647c0,0 -5.211,-0.671 -7.651,-6.345" style="fill:#ffd35e;fill-rule:nonzero;"/></g></g></g><path d="M544.334,159.509l-4.077,-5.904c0,0 -21.793,16.313 -38.123,12.669c0,0 4.877,19.284 42.2,-6.765" style="fill:#ffd35e;fill-rule:nonzero;"/><path d="M489.134,98.899c0,0 -8.301,-10.688 -38.275,12.172c0,0 -4.341,-2.998 -4.371,-6.737c0,0 33.763,-27.036 42.646,-5.435" style="fill:#ffd35e;fill-rule:nonzero;"/><path d="M474.176,133.226c0,0 7.493,11.271 39.067,-9.331c0,0 4.105,3.311 3.863,7.041c0,0 -35.659,24.486 -42.93,2.29" style="fill:#ffd35e;fill-rule:nonzero;"/><path d="M466.267,75.767c0,0 -11.154,-11.916 -21.161,-13.635l1.522,-7.141c0,0 17.123,4.626 19.639,20.776" style="fill:#ffd35e;fill-rule:nonzero;"/><text x="206.158px" y="455.743px" style="font-family:'BlendaScript', 'Blenda Script';font-size:96px;fill:#fff;">Ho<tspan x="330.286px 376.27px 418.318px 471.406px 524.398px " y="455.743px 455.743px 455.743px 455.743px 455.743px ">oray!</tspan></text></svg>